<svg width="24" height="25" viewBox="0 0 24 25" fill="none" xmlns="http://www.w3.org/2000/svg">
<g clip-path="url(#clip0)">
<path d="M3.51562 24.6719H11.3438V16.1406H8.53125V13.3281H11.3438V9.8125C11.3438 7.87396 12.9208 6.29688 14.8594 6.29688H18.375V9.10938H15.5625C14.787 9.10938 14.1562 9.74017 14.1562 10.5156V13.3281H18.2481L17.7794 16.1406H14.1562V24.6719H20.4844C22.4229 24.6719 24 23.0948 24 21.1562V4.1875C24 2.24896 22.4229 0.671875 20.4844 0.671875H3.51562C1.57709 0.671875 0 2.24896 0 4.1875V21.1562C0 23.0948 1.57709 24.6719 3.51562 24.6719ZM1.40625 4.1875C1.40625 3.02441 2.35254 2.07812 3.51562 2.07812H20.4844C21.6475 2.07812 22.5938 3.02441 22.5938 4.1875V21.1562C22.5938 22.3193 21.6475 23.2656 20.4844 23.2656H15.5625V17.5469H18.9706L19.9081 11.9219H15.5625V10.5156H19.7812V4.89062H14.8594C12.1454 4.89062 9.9375 7.09851 9.9375 9.8125V11.9219H7.125V17.5469H9.9375V23.2656H3.51562C2.35254 23.2656 1.40625 22.3193 1.40625 21.1562V4.1875Z" fill="#051A52"/>
</g>
<defs>
<clipPath id="clip0">
<rect width="24" height="24" fill="white" transform="translate(0 0.671875)"/>
</clipPath>
</defs>
</svg>
