<svg width="24" height="25" viewBox="0 0 24 25" fill="none" xmlns="http://www.w3.org/2000/svg">
<g clip-path="url(#clip0)">
<path d="M3.51562 24.6719H20.4844C22.4229 24.6719 24 23.0948 24 21.1562V4.1875C24 2.24896 22.4229 0.671875 20.4844 0.671875H3.51562C1.57709 0.671875 0 2.24896 0 4.1875V21.1562C0 23.0948 1.57709 24.6719 3.51562 24.6719ZM1.40625 4.1875C1.40625 3.02441 2.35254 2.07812 3.51562 2.07812H20.4844C21.6475 2.07812 22.5938 3.02441 22.5938 4.1875V21.1562C22.5938 22.3193 21.6475 23.2656 20.4844 23.2656H3.51562C2.35254 23.2656 1.40625 22.3193 1.40625 21.1562V4.1875Z" fill="#051A52"/>
<path d="M12 19C15.4893 19 18.3281 16.1611 18.3281 12.6719C18.3281 9.18262 15.4893 6.34375 12 6.34375C8.51074 6.34375 5.67188 9.18262 5.67188 12.6719C5.67188 16.1611 8.51074 19 12 19ZM12 7.75C14.714 7.75 16.9219 9.95789 16.9219 12.6719C16.9219 15.3859 14.714 17.5938 12 17.5938C9.28601 17.5938 7.07812 15.3859 7.07812 12.6719C7.07812 9.95789 9.28601 7.75 12 7.75Z" fill="#051A52"/>
<path d="M19.0312 7.75C20.1943 7.75 21.1406 6.80371 21.1406 5.64062C21.1406 4.47754 20.1943 3.53125 19.0312 3.53125C17.8682 3.53125 16.9219 4.47754 16.9219 5.64062C16.9219 6.80371 17.8682 7.75 19.0312 7.75ZM19.0312 4.9375C19.4189 4.9375 19.7344 5.25299 19.7344 5.64062C19.7344 6.02826 19.4189 6.34375 19.0312 6.34375C18.6436 6.34375 18.3281 6.02826 18.3281 5.64062C18.3281 5.25299 18.6436 4.9375 19.0312 4.9375Z" fill="#051A52"/>
</g>
<defs>
<clipPath id="clip0">
<rect width="24" height="24" fill="white" transform="translate(0 0.671875)"/>
</clipPath>
</defs>
</svg>
