<svg width="24" height="25" viewBox="0 0 24 25" fill="none" xmlns="http://www.w3.org/2000/svg">
<g clip-path="url(#clip0)">
<path d="M18.5898 24.672C18.6928 24.672 23.3518 24.671 23.2498 24.671C23.6638 24.671 23.9998 24.335 23.9998 23.921C23.6498 16.064 25.8418 7.77295 17.6618 7.77295C16.0888 7.77295 14.8358 8.30995 13.9328 9.01995C13.9328 7.55895 12.3538 8.36695 8.70882 8.14995C8.29482 8.14995 7.95882 8.48595 7.95882 8.89995C8.26082 23.066 7.28482 24.671 8.70882 24.671H13.3688C14.7218 24.671 13.8608 22.763 14.1188 16.483C14.1188 13.8889 14.8688 13.3809 16.1648 13.3809C17.5988 13.3809 17.8398 14.377 17.8398 16.609C18.0968 22.776 17.2418 24.672 18.5898 24.672ZM16.1648 11.8809C11.6738 11.8809 12.6188 16.819 12.6188 23.171H9.45882V9.64995H12.4328V10.9479C12.4328 11.6679 13.5298 12.022 13.9118 11.298C14.4038 10.364 15.6818 9.27295 17.6618 9.27295C21.1888 9.27295 22.4998 11.0059 22.4998 15.669V23.172H19.3398C19.3398 16.028 20.0958 11.8809 16.1648 11.8809Z" fill="#051A52"/>
<path d="M1.12199 8.15083C-0.298008 8.15083 0.673992 9.73583 0.371992 23.9218C0.371992 24.3358 0.707992 24.6718 1.12199 24.6718H5.78699C7.20699 24.6718 6.23499 23.0868 6.53699 8.90083C6.53699 7.60583 4.65599 8.36983 1.12199 8.15083ZM5.03699 23.1718H1.87199V9.65083H5.03699V23.1718Z" fill="#051A52"/>
<path d="M3.45203 0.671875C-1.12397 0.671875 -1.09597 7.60087 3.45203 7.60087C7.99703 7.60087 8.03303 0.671875 3.45203 0.671875ZM3.45203 6.10087C0.884026 6.10087 0.860026 2.17188 3.45203 2.17188C6.04903 2.17188 6.01603 6.10087 3.45203 6.10087Z" fill="#051A52"/>
</g>
<defs>
<clipPath id="clip0">
<rect width="24" height="24" fill="white" transform="translate(0 0.671875)"/>
</clipPath>
</defs>
</svg>
