<svg width="24" height="25" viewBox="0 0 24 25" fill="none" xmlns="http://www.w3.org/2000/svg">
<g clip-path="url(#clip0)">
<path d="M24 5.49833C22.4903 5.56791 22.5233 5.56224 22.3526 5.57652L23.2467 3.02312C23.2467 3.02312 20.4558 4.04979 19.7483 4.23344C17.8901 2.56334 15.1282 2.48955 13.1536 3.70317C11.5366 4.69725 10.6686 6.40434 10.9581 8.39964C7.81109 7.96293 5.15954 6.47117 3.0661 3.9564L2.40399 3.16118L1.90924 4.06975C1.28394 5.21782 1.07629 6.5305 1.3244 7.76591C1.42621 8.27275 1.59924 8.75615 1.83893 9.20878L1.27093 8.98869L1.20355 9.93773C1.13525 10.9018 1.45624 12.0271 2.06232 12.9478C2.23297 13.2071 2.4527 13.4918 2.7312 13.7727L2.43768 13.7276L2.79584 14.8151C3.2666 16.2439 4.24438 17.3493 5.5133 17.9638C4.24603 18.5016 3.22229 18.8447 1.53955 19.3982L0 19.9043L1.422 20.6818C1.96417 20.9783 3.88 21.9683 5.77295 22.2653C9.98071 22.9252 14.7182 22.3878 17.9075 19.5154C20.5939 17.0961 21.4753 13.6546 21.2922 10.0732C21.2646 9.53105 21.4131 9.01359 21.7104 8.61644C22.3061 7.82121 23.9963 5.50364 24 5.49833ZM20.586 7.77415C20.0922 8.43352 19.8448 9.27562 19.8891 10.145C20.0738 13.7575 19.0909 16.559 16.9675 18.4714C14.4869 20.7054 10.4859 21.5823 5.99066 20.8772C5.17657 20.7496 4.3352 20.4637 3.63885 20.1783C5.04968 19.6929 6.13916 19.2602 7.89862 18.4274L10.3548 17.2649L7.643 17.0913C6.34405 17.0082 5.26245 16.3786 4.59759 15.3566C4.95062 15.336 5.29101 15.2789 5.62994 15.1844L8.21631 14.4641L5.60834 13.8254C4.34106 13.5151 3.61871 12.7568 3.23584 12.1753C2.98444 11.7931 2.82019 11.4017 2.72168 11.0408C2.98315 11.1109 3.28802 11.1609 3.77966 11.2096L6.19354 11.4483L4.28101 9.9564C2.90295 8.88158 2.35071 7.26677 2.75555 5.7144C7.05633 10.1752 12.106 9.83995 12.6143 9.95787C12.5024 8.87114 12.4995 8.86857 12.4702 8.76512C11.8193 6.46403 13.2458 5.29564 13.8893 4.90013C15.2333 4.07414 17.3666 3.94963 18.8443 5.31047C19.1634 5.60417 19.595 5.71971 19.999 5.61937C20.3615 5.52928 20.6591 5.43388 20.9504 5.33006L20.3439 7.06187L21.1181 7.06242C20.972 7.25835 20.7967 7.4929 20.586 7.77415Z" fill="#051A52"/>
</g>
<defs>
<clipPath id="clip0">
<rect width="24" height="24" fill="white" transform="translate(0 0.671875)"/>
</clipPath>
</defs>
</svg>
